<svg width="32" height="32" viewBox="0 0 32 32" fill="none" xmlns="http://www.w3.org/2000/svg">
<path d="M25.3337 15.9974C25.3337 16.7338 24.7367 17.3307 24.0003 17.3307H19.3337C18.2291 17.3307 17.3337 18.2262 17.3337 19.3307V23.9974C17.3337 24.7338 16.7367 25.3307 16.0003 25.3307V25.3307C15.2639 25.3307 14.667 24.7338 14.667 23.9974V19.3307C14.667 18.2262 13.7716 17.3307 12.667 17.3307H8.00033C7.26395 17.3307 6.66699 16.7338 6.66699 15.9974V15.9974C6.66699 15.261 7.26395 14.6641 8.00033 14.6641H12.667C13.7716 14.6641 14.667 13.7686 14.667 12.6641V7.9974C14.667 7.26102 15.2639 6.66406 16.0003 6.66406V6.66406C16.7367 6.66406 17.3337 7.26102 17.3337 7.9974V12.6641C17.3337 13.7686 18.2291 14.6641 19.3337 14.6641H24.0003C24.7367 14.6641 25.3337 15.261 25.3337 15.9974V15.9974Z" fill="black"/>
</svg>
